<svg width="358" height="300" viewBox="0 0 358 300" fill="none" xmlns="http://www.w3.org/2000/svg">
<path d="M101.821 51.3533L124.386 11.8365L350.489 153.224L322.752 189.923L101.821 51.3533Z" fill="#FFF2CC"/>
<path d="M299.588 150.645L323.144 189.634L78.1664 298.894L59.8409 257.187L299.588 150.645Z" fill="#FFF2CC"/>
<g clipPath="url(#clip0_2628_1666)">
<path d="M198.763 123.132C198.763 113.874 193.262 105.826 185.175 101.803C185.627 100.005 185.873 98.1303 185.873 96.2161C185.873 82.8947 174.543 72.1126 160.545 72.1126C159.191 72.1126 157.877 72.2298 156.605 72.4251C153.977 61.7602 143.961 53.8298 131.975 53.8298C125.243 53.8298 119.167 56.33 114.611 60.3929C110.095 56.33 103.979 53.8298 97.2878 53.8298C85.3013 53.8298 75.2852 61.7602 72.658 72.386C71.3855 72.1907 70.0308 72.0735 68.7172 72.0735C54.7193 72.0735 43.3896 82.8556 43.3896 96.177C43.3896 98.0913 43.6359 99.9664 44.0874 101.763C36.0007 105.826 30.5 113.835 30.5 123.132C30.5 130.32 33.825 136.805 39.1204 141.22C42.6918 145.126 48.0282 147.861 53.4057 148.33C94.2091 151.807 135.054 151.807 175.898 148.33C181.234 147.978 186.448 145.165 189.978 141.376C195.355 136.962 198.763 130.399 198.763 123.132Z" fill="url(#paint0_linear_2628_1666)"/>
<path d="M185.176 101.763C185.628 99.9664 185.874 98.0913 185.874 96.177C185.874 82.8556 174.545 72.0735 160.547 72.0735C159.192 72.0735 157.878 72.1907 156.606 72.386C153.979 61.7602 143.963 53.8298 131.976 53.8298C125.244 53.8298 119.169 56.33 114.612 60.3929C110.097 56.33 103.98 53.8298 97.2891 53.8298C89.777 53.8298 83.0449 56.9551 78.4062 61.8774V150.01C110.877 151.65 143.388 151.064 175.858 148.33C181.195 147.978 186.408 145.165 189.938 141.376C195.316 136.962 198.723 130.438 198.723 123.132C198.764 113.835 193.263 105.826 185.176 101.763Z" fill="url(#paint1_linear_2628_1666)"/>
<path d="M218.713 188.723C211.612 182.668 207.055 175.754 204.059 166.222C193.878 170.245 183.698 174.269 173.518 178.254C181.563 191.302 191.785 200.951 205.044 207.553C211.283 210.639 218.96 207.944 221.628 201.732L221.71 201.537C223.68 197.083 222.49 191.927 218.713 188.723Z" fill="url(#paint2_linear_2628_1666)"/>
<path d="M218.713 188.723C211.612 182.668 207.055 175.754 204.059 166.222C193.878 170.245 183.698 174.269 173.518 178.254C181.563 191.302 191.785 200.951 205.044 207.553C211.283 210.639 218.96 207.944 221.628 201.732L221.71 201.537C223.68 197.083 222.49 191.927 218.713 188.723Z" fill="url(#paint3_linear_2628_1666)"/>
<path d="M240.674 147.705C240.674 136.376 233.942 126.531 224.09 121.609C224.624 119.421 224.952 117.117 224.952 114.773C224.952 98.5213 211.119 85.3171 194.001 85.3171C192.359 85.3171 190.758 85.4343 189.157 85.6687C185.955 72.6598 173.681 62.9716 159.027 62.9716C150.817 62.9716 143.346 66.0187 137.845 70.98C132.303 66.0187 124.832 62.9716 116.663 62.9716C102.009 62.9716 89.7759 72.6598 86.533 85.6687C84.9731 85.4343 83.3311 85.3171 81.6891 85.3171C64.6124 85.3171 50.7376 98.4823 50.7376 114.773C50.7376 117.117 51.025 119.421 51.5997 121.609C41.7478 126.531 35.0156 136.376 35.0156 147.705C35.0156 156.495 39.0795 164.425 45.5243 169.816C49.8756 174.582 56.4025 177.903 62.9704 178.528C112.846 182.747 162.762 182.747 212.679 178.528C219.205 178.098 225.568 174.66 229.919 170.012C236.487 164.62 240.674 156.651 240.674 147.705Z" fill="url(#paint4_linear_2628_1666)"/>
<path d="M240.674 147.705C240.674 156.612 236.487 164.62 229.919 170.011C225.609 174.621 219.205 178.098 212.679 178.528C162.803 182.747 112.846 182.747 62.9704 178.528C56.4025 177.903 49.8756 174.582 45.5243 169.816C39.0795 164.425 35.0156 156.534 35.0156 147.705C35.0156 140.751 37.5197 134.384 41.7888 129.344H233.901C238.129 134.423 240.674 140.79 240.674 147.705Z" fill="url(#paint5_linear_2628_1666)"/>
<path d="M229.551 146.103L208.574 169.347L217.359 177.708C222.162 176.34 226.636 173.528 229.92 170.012C234.477 166.261 237.884 161.3 239.526 155.596L229.551 146.103Z" fill="url(#paint6_linear_2628_1666)"/>
<path d="M88.2978 180.325L52.2151 145.986L37.7246 159.776C39.5308 163.644 42.2401 167.081 45.524 169.855C49.8753 174.621 56.4022 177.942 62.9702 178.567C71.4264 179.231 79.8826 179.856 88.2978 180.325Z" fill="url(#paint7_linear_2628_1666)"/>
<path d="M147.611 92.4663C147.611 108.718 133.777 121.922 116.66 121.922C115.018 121.922 113.417 121.805 111.857 121.57C112.391 119.383 112.678 117.117 112.678 114.812C112.678 100.123 101.348 87.9347 86.5703 85.7079C89.7722 72.699 102.046 63.0107 116.701 63.0107C133.736 63.0498 147.611 76.2149 147.611 92.4663Z" fill="url(#paint8_linear_2628_1666)"/>
<path d="M112.684 114.812C112.684 126.141 105.952 135.985 96.1001 140.907C92.8572 127.938 80.5833 118.288 65.9696 118.288C60.7974 118.288 55.9125 119.499 51.6022 121.648C51.0686 119.46 50.7812 117.156 50.7812 114.812C50.7812 98.5603 64.615 85.3561 81.7327 85.3561C98.8094 85.3561 112.684 98.5212 112.684 114.812Z" fill="url(#paint9_linear_2628_1666)"/>
<path d="M159.067 121.922C176.161 121.922 190.018 108.734 190.018 92.4663C190.018 76.1984 176.161 63.0107 159.067 63.0107C141.973 63.0107 128.115 76.1984 128.115 92.4663C128.115 108.734 141.973 121.922 159.067 121.922Z" fill="url(#paint10_linear_2628_1666)"/>
<path d="M224.954 114.812C224.954 117.156 224.666 119.46 224.133 121.648C219.822 119.499 214.938 118.288 209.765 118.288C195.152 118.288 182.919 127.938 179.676 140.907C169.824 135.985 163.092 126.141 163.092 114.812C163.092 98.5603 176.967 85.3561 194.043 85.3561C211.079 85.3561 224.954 98.5212 224.954 114.812Z" fill="url(#paint11_linear_2628_1666)"/>
<path d="M224.955 114.812C224.955 131.063 211.121 144.267 194.004 144.267C179.349 144.267 167.116 134.579 163.873 121.57C178.692 119.382 189.981 107.194 189.981 92.466C189.981 90.1221 189.693 87.8563 189.16 85.7077C190.72 85.4733 192.32 85.3561 193.962 85.3561C211.08 85.3561 224.955 98.5212 224.955 114.812Z" fill="url(#paint12_linear_2628_1666)"/>
<path d="M137.841 113.913C132.3 118.875 124.829 121.922 116.66 121.922C115.018 121.922 113.417 121.805 111.857 121.57C112.391 119.383 112.678 117.117 112.678 114.812C112.678 100.123 101.348 87.9347 86.5703 85.7079C89.7722 72.699 102.046 63.0107 116.701 63.0107C124.911 63.0107 132.382 66.0579 137.882 71.0192C131.889 76.3712 128.154 84.0281 128.154 92.4663C128.154 100.904 131.848 108.561 137.841 113.913Z" fill="url(#paint13_linear_2628_1666)"/>
<path d="M165.674 96.0208C164.484 93.3253 162.801 91.1376 160.707 89.4187C158.614 87.7389 156.151 86.5279 153.359 85.7856C150.773 85.1215 147.982 84.7699 145.067 84.7699C142.153 84.7699 139.362 85.1215 136.816 85.7856C134.066 86.5279 131.603 87.7389 129.51 89.4187C127.375 91.1376 125.692 93.3644 124.543 96.0208C124.173 96.8803 123.845 97.7788 123.598 98.7554V91.958C123.598 89.2234 122.039 86.9966 119.37 85.8637C117.646 85.1215 115.717 84.7308 113.705 84.7308C111.694 84.7308 109.806 85.1215 108.041 85.8637C105.331 86.9966 103.812 89.2234 103.812 91.958V136.844C103.812 139.462 105.331 141.689 107.917 142.9C109.683 143.72 111.653 144.15 113.705 144.15C115.758 144.15 117.687 143.72 119.493 142.9C122.121 141.689 123.598 139.462 123.598 136.844V130.594C123.763 131.18 123.927 131.727 124.132 132.235C125.035 134.696 126.349 136.844 128.073 138.524C129.756 140.204 131.767 141.571 134.025 142.509C135.092 142.978 136.242 143.368 137.432 143.642V144.501C137.432 147.47 138.869 149.189 140.1 150.088C141.578 151.221 143.302 151.807 145.108 151.807C146.915 151.807 148.639 151.221 150.117 150.088C151.307 149.15 152.785 147.431 152.785 144.501V143.681C153.975 143.368 155.125 143.017 156.192 142.548C158.45 141.571 160.461 140.243 162.144 138.563C163.827 136.844 165.182 134.735 166.085 132.313C166.988 129.93 167.439 127.156 167.439 124.031V105.318C167.398 101.724 166.824 98.5992 165.674 96.0208ZM147.612 120.437C146.791 120.163 145.929 120.046 145.026 120.046C144.164 120.046 143.343 120.163 142.522 120.437V105.318C142.522 103.443 142.974 102.818 143.138 102.701C143.261 102.584 143.672 102.193 145.026 102.193C146.422 102.193 146.833 102.584 146.997 102.74C147.12 102.896 147.612 103.482 147.612 105.318V120.437Z" fill="url(#paint14_linear_2628_1666)"/>
<path d="M165.674 96.0208C164.484 93.3253 162.801 91.1376 160.707 89.4187C158.614 87.7389 156.151 86.5279 153.359 85.7856C150.773 85.1215 147.982 84.7699 145.067 84.7699C142.153 84.7699 139.362 85.1215 136.816 85.7856C134.066 86.5279 131.603 87.7389 129.51 89.4187C127.375 91.1376 125.692 93.3644 124.543 96.0208C124.173 96.8803 123.845 97.7788 123.598 98.7554V91.958C123.598 89.2234 122.039 86.9966 119.37 85.8637C117.646 85.1215 115.717 84.7308 113.705 84.7308C111.694 84.7308 109.806 85.1215 108.041 85.8637C105.331 86.9966 103.812 89.2234 103.812 91.958V136.844C103.812 139.462 105.331 141.689 107.917 142.9C109.683 143.72 111.653 144.15 113.705 144.15C115.758 144.15 117.687 143.72 119.493 142.9C122.121 141.689 123.598 139.462 123.598 136.844V130.594C123.763 131.18 123.927 131.727 124.132 132.235C125.035 134.696 126.349 136.844 128.073 138.524C129.756 140.204 131.767 141.571 134.025 142.509C135.092 142.978 136.242 143.368 137.432 143.642V144.501C137.432 147.47 138.869 149.189 140.1 150.088C141.578 151.221 143.302 151.807 145.108 151.807C146.915 151.807 148.639 151.221 150.117 150.088C151.307 149.15 152.785 147.431 152.785 144.501V143.681C153.975 143.368 155.125 143.017 156.192 142.548C158.45 141.571 160.461 140.243 162.144 138.563C163.827 136.844 165.182 134.735 166.085 132.313C166.988 129.93 167.439 127.156 167.439 124.031V105.318C167.398 101.724 166.824 98.5992 165.674 96.0208ZM147.612 120.437C146.791 120.163 145.929 120.046 145.026 120.046C144.164 120.046 143.343 120.163 142.522 120.437V105.318C142.522 103.443 142.974 102.818 143.138 102.701C143.261 102.584 143.672 102.193 145.026 102.193C146.422 102.193 146.833 102.584 146.997 102.74C147.12 102.896 147.612 103.482 147.612 105.318V120.437Z" fill="url(#paint15_linear_2628_1666)"/>
<path d="M197.12 187.513C197.12 187.278 197.12 187.083 197.161 186.849C197.161 186.497 197.161 186.185 197.161 185.833C197.161 167.824 181.808 153.213 162.884 153.213C151.719 153.213 141.826 158.292 135.586 166.105C129.347 158.253 119.413 153.213 108.288 153.213C89.3643 153.213 74.0117 167.824 74.0117 185.833V186.849C74.0117 187.083 74.0117 187.278 74.0528 187.513C75.2432 212.866 103.321 238.611 131.769 252.909C134.149 254.12 137.023 254.12 139.445 252.909C167.851 238.65 195.929 212.906 197.12 187.513C197.12 187.552 197.12 187.552 197.12 187.513Z" fill="url(#paint16_linear_2628_1666)"/>
<path d="M74.0117 185.872V186.888C74.0117 187.122 74.0117 187.317 74.0528 187.552C75.2432 212.906 103.321 238.65 131.769 252.948C134.149 254.159 137.023 254.159 139.445 252.948C167.851 238.65 195.929 212.906 197.161 187.552C197.161 187.317 197.161 187.122 197.202 186.888C197.202 186.536 197.202 186.224 197.202 185.872H74.0117Z" fill="url(#paint17_linear_2628_1666)"/>
<path d="M197.161 185.872V186.888C197.161 187.122 197.161 187.317 197.12 187.552C195.929 212.906 167.851 238.65 139.404 252.948C137.023 254.159 134.149 254.159 131.728 252.948C103.321 238.65 75.2432 212.906 74.0528 187.552C74.0528 187.317 74.0528 187.122 74.0117 186.888C74.0117 186.536 74.0117 186.224 74.0117 185.872H197.161Z" fill="url(#paint18_linear_2628_1666)"/>
<path d="M128.608 185.872C128.608 193.295 131.194 200.092 135.586 205.6C129.306 213.453 119.413 218.492 108.288 218.492C89.3643 218.492 74.0117 203.881 74.0117 185.872C74.0117 167.863 89.3643 153.252 108.288 153.252C119.454 153.252 129.347 158.331 135.586 166.144C131.235 171.613 128.608 178.45 128.608 185.872Z" fill="url(#paint19_linear_2628_1666)"/>
<path d="M162.886 218.492C181.816 218.492 197.162 203.888 197.162 185.872C197.162 167.857 181.816 153.252 162.886 153.252C143.955 153.252 128.609 167.857 128.609 185.872C128.609 203.888 143.955 218.492 162.886 218.492Z" fill="url(#paint20_linear_2628_1666)"/>
<path d="M197.161 185.872V186.888C197.161 187.122 197.161 187.317 197.12 187.552C195.929 212.906 167.851 238.65 139.404 252.948C137.023 254.159 134.149 254.159 131.728 252.948C103.321 238.65 75.2432 212.906 74.0528 187.552C74.0528 187.317 74.0528 187.122 74.0117 186.888C74.0117 186.536 74.0117 186.224 74.0117 185.872H197.161Z" fill="url(#paint21_linear_2628_1666)"/>
<path d="M117.651 89.4185C116.419 88.9107 115.106 88.6372 113.669 88.6372C112.232 88.6372 110.919 88.9107 109.687 89.4185C108.456 89.9264 107.881 90.7858 107.881 91.9578V136.844C107.881 137.977 108.497 138.837 109.687 139.384C110.919 139.93 112.232 140.243 113.669 140.243C115.106 140.243 116.419 139.97 117.651 139.384C118.882 138.837 119.457 137.977 119.457 136.844V91.9578C119.457 90.7858 118.841 89.9264 117.651 89.4185Z" fill="url(#paint22_linear_2628_1666)"/>
<path d="M161.902 97.5442C160.958 95.4346 159.685 93.7157 158.043 92.3875C156.401 91.0593 154.472 90.1217 152.255 89.5357C150.039 88.9497 147.617 88.6372 145.072 88.6372C142.486 88.6372 140.105 88.9497 137.929 89.5357C135.712 90.1217 133.824 91.0593 132.182 92.3875C130.54 93.7157 129.268 95.4346 128.323 97.5442C127.379 99.6537 126.928 102.232 126.928 105.318V124.031C126.928 126.726 127.297 129.031 127.995 130.984C128.693 132.938 129.719 134.578 131.033 135.907C132.346 137.235 133.906 138.251 135.671 139.032C137.436 139.774 139.407 140.282 141.541 140.516V144.618C141.541 145.751 141.911 146.611 142.65 147.158C143.389 147.705 144.21 148.017 145.113 148.017C146.016 148.017 146.837 147.744 147.576 147.158C148.315 146.611 148.684 145.751 148.684 144.618V140.516C150.819 140.282 152.748 139.774 154.554 139.032C156.319 138.29 157.879 137.235 159.193 135.907C160.506 134.578 161.533 132.938 162.271 130.984C163.01 129.031 163.38 126.726 163.38 124.031V105.318C163.298 102.232 162.846 99.6537 161.902 97.5442ZM151.722 124.031C151.722 125.671 151.434 127.039 150.901 128.054C150.367 129.109 149.587 129.852 148.602 130.398V127.273C148.602 126.101 148.233 125.242 147.494 124.734C146.755 124.226 145.934 123.953 145.031 123.953C144.128 123.953 143.307 124.226 142.568 124.734C141.829 125.242 141.459 126.101 141.459 127.273V130.398C139.448 129.305 138.422 127.195 138.422 124.031V105.318C138.422 102.935 138.996 101.138 140.146 100.005C141.295 98.8334 142.937 98.2864 144.99 98.2864C147.042 98.2864 148.684 98.8724 149.874 100.005C151.065 101.177 151.64 102.935 151.64 105.318V124.031H151.722Z" fill="url(#paint23_linear_2628_1666)"/>
<path d="M117.651 89.4185C116.419 88.9107 115.106 88.6372 113.669 88.6372C112.232 88.6372 110.919 88.9107 109.687 89.4185C108.456 89.9264 107.881 90.7858 107.881 91.9578V136.844C107.881 137.977 108.497 138.837 109.687 139.384C110.919 139.93 112.232 140.243 113.669 140.243C115.106 140.243 116.419 139.97 117.651 139.384C118.882 138.837 119.457 137.977 119.457 136.844V91.9578C119.457 90.7858 118.841 89.9264 117.651 89.4185Z" fill="url(#paint24_linear_2628_1666)"/>
<path d="M161.902 97.5442C160.958 95.4346 159.685 93.7157 158.043 92.3875C156.401 91.0593 154.472 90.1217 152.255 89.5357C150.039 88.9497 147.617 88.6372 145.072 88.6372C142.486 88.6372 140.105 88.9497 137.929 89.5357C135.712 90.1217 133.824 91.0593 132.182 92.3875C130.54 93.7157 129.268 95.4346 128.323 97.5442C127.379 99.6537 126.928 102.232 126.928 105.318V124.031C126.928 126.726 127.297 129.031 127.995 130.984C128.693 132.938 129.719 134.578 131.033 135.907C132.346 137.235 133.906 138.251 135.671 139.032C137.436 139.774 139.407 140.282 141.541 140.516V144.618C141.541 145.751 141.911 146.611 142.65 147.158C143.389 147.705 144.21 148.017 145.113 148.017C146.016 148.017 146.837 147.744 147.576 147.158C148.315 146.611 148.684 145.751 148.684 144.618V140.516C150.819 140.282 152.748 139.774 154.554 139.032C156.319 138.29 157.879 137.235 159.193 135.907C160.506 134.578 161.533 132.938 162.271 130.984C163.01 129.031 163.38 126.726 163.38 124.031V105.318C163.298 102.232 162.846 99.6537 161.902 97.5442ZM151.722 124.031C151.722 125.671 151.434 127.039 150.901 128.054C150.367 129.109 149.587 129.852 148.602 130.398V127.273C148.602 126.101 148.233 125.242 147.494 124.734C146.755 124.226 145.934 123.953 145.031 123.953C144.128 123.953 143.307 124.226 142.568 124.734C141.829 125.242 141.459 126.101 141.459 127.273V130.398C139.448 129.305 138.422 127.195 138.422 124.031V105.318C138.422 102.935 138.996 101.138 140.146 100.005C141.295 98.8334 142.937 98.2864 144.99 98.2864C147.042 98.2864 148.684 98.8724 149.874 100.005C151.065 101.177 151.64 102.935 151.64 105.318V124.031H151.722Z" fill="url(#paint25_linear_2628_1666)"/>
<path d="M149.958 99.9662C151.149 101.138 151.723 102.896 151.723 105.279V123.992C151.723 125.632 151.436 127 150.902 128.015C150.369 129.07 149.589 129.812 148.604 130.359V127.234C148.604 126.062 148.234 125.203 147.495 124.695C146.756 124.187 145.935 123.913 145.032 123.913C144.129 123.913 143.308 124.187 142.569 124.695C141.83 125.203 141.461 126.062 141.461 127.234V130.359L151.518 139.93C152.544 139.696 153.53 139.344 154.433 138.954C156.198 138.211 157.758 137.157 159.071 135.828C160.385 134.5 161.411 132.86 162.15 130.906C162.889 128.953 163.258 126.648 163.258 123.953V112.623L149.958 99.9662Z" fill="url(#paint26_linear_2628_1666)"/>
<path d="M141.502 140.477V144.579C141.502 145.712 141.871 146.571 142.61 147.118C143.349 147.665 144.17 147.978 145.073 147.978C145.976 147.978 146.797 147.704 147.536 147.118C147.7 146.962 147.865 146.806 148.029 146.65L141.502 140.477Z" fill="url(#paint27_linear_2628_1666)"/>
<path d="M158.043 92.3875C156.401 91.0593 154.472 90.1217 152.255 89.5357C150.039 88.9497 147.617 88.6372 145.072 88.6372C142.486 88.6372 140.105 88.9497 137.929 89.5357C135.712 90.1217 133.824 91.0593 132.182 92.3875C130.54 93.7157 129.268 95.4346 128.323 97.5442C127.379 99.6537 126.928 102.232 126.928 105.318V114.303H138.463V105.318C138.463 102.935 139.037 101.138 140.187 100.005C141.336 98.8334 142.978 98.2864 145.031 98.2864C147.124 98.2864 148.725 98.8724 149.916 100.005C151.106 101.177 151.681 102.935 151.681 105.318V114.303H163.257V105.318C163.257 102.271 162.805 99.6537 161.861 97.5442C160.958 95.4346 159.644 93.7157 158.043 92.3875Z" fill="url(#paint28_linear_2628_1666)"/>
<path d="M158.043 92.3875C156.401 91.0593 154.472 90.1217 152.255 89.5357C150.039 88.9497 147.617 88.6372 145.072 88.6372C142.486 88.6372 140.105 88.9497 137.929 89.5357C135.712 90.1217 133.824 91.0593 132.182 92.3875C130.54 93.7157 129.268 95.4346 128.323 97.5442C127.379 99.6537 126.928 102.232 126.928 105.318V114.303H138.463V105.318C138.463 102.935 139.037 101.138 140.187 100.005C141.336 98.8334 142.978 98.2864 145.031 98.2864C147.124 98.2864 148.725 98.8724 149.916 100.005C151.106 101.177 151.681 102.935 151.681 105.318V114.303H163.257V105.318C163.257 102.271 162.805 99.6537 161.861 97.5442C160.958 95.4346 159.644 93.7157 158.043 92.3875Z" fill="url(#paint29_linear_2628_1666)"/>
<path d="M130.537 185.325C131.481 185.325 132.179 184.935 132.672 184.153C133.164 183.372 133.41 182.434 133.41 181.341C133.41 180.403 133.205 179.544 132.754 178.723C132.302 177.903 131.563 177.473 130.578 177.473H108.904C107.837 177.473 106.892 177.707 106.071 178.176C105.209 178.645 104.799 179.348 104.799 180.247V216.89C104.799 217.828 105.209 218.492 106.071 218.961C106.933 219.43 107.878 219.664 108.904 219.664H130.496C131.522 219.664 132.22 219.234 132.672 218.414C133.123 217.593 133.328 216.695 133.328 215.796C133.328 214.703 133.082 213.804 132.589 212.984C132.097 212.202 131.399 211.812 130.455 211.812H114.199V202.006H123.312C124.338 202.006 125.036 201.616 125.488 200.873C125.939 200.131 126.145 199.35 126.145 198.608C126.145 197.67 125.898 196.85 125.406 196.146C124.913 195.443 124.215 195.092 123.271 195.092H114.158V185.325H130.537Z" fill="url(#paint30_linear_2628_1666)"/>
<path d="M165.223 184.739C164.443 183.02 163.417 181.614 162.062 180.52C160.708 179.426 159.148 178.645 157.341 178.176C155.535 177.707 153.565 177.473 151.471 177.473C149.378 177.473 147.407 177.707 145.601 178.176C143.795 178.645 142.235 179.426 140.881 180.52C139.526 181.614 138.5 183.02 137.72 184.739C136.94 186.458 136.57 188.607 136.57 191.107V206.421C136.57 208.608 136.858 210.523 137.432 212.124C138.007 213.726 138.828 215.054 139.936 216.148C141.004 217.242 142.276 218.062 143.713 218.687C145.15 219.312 146.751 219.703 148.516 219.898V223.258C148.516 224.196 148.803 224.86 149.419 225.328C150.035 225.797 150.691 226.032 151.43 226.032C152.169 226.032 152.826 225.797 153.442 225.328C154.057 224.86 154.345 224.157 154.345 223.258V219.859C156.069 219.664 157.67 219.273 159.148 218.648C160.584 218.023 161.857 217.203 162.924 216.109C163.991 215.015 164.854 213.687 165.428 212.085C166.044 210.484 166.331 208.608 166.331 206.382V191.068C166.372 188.607 166.003 186.497 165.223 184.739ZM156.89 206.421C156.89 207.749 156.685 208.882 156.233 209.702C155.782 210.562 155.166 211.187 154.345 211.616V209.077C154.345 208.101 154.057 207.436 153.442 207.007C152.826 206.577 152.169 206.382 151.43 206.382C150.691 206.382 150.035 206.577 149.419 207.007C148.803 207.436 148.516 208.14 148.516 209.077V211.616C146.874 210.718 146.012 208.999 146.012 206.421V191.107C146.012 189.154 146.504 187.708 147.448 186.732C148.393 185.794 149.706 185.325 151.43 185.325C153.113 185.325 154.468 185.794 155.453 186.732C156.438 187.669 156.89 189.115 156.89 191.107V206.421Z" fill="url(#paint31_linear_2628_1666)"/>
<path d="M117.651 89.4185C116.419 88.9107 115.106 88.6372 113.669 88.6372C112.232 88.6372 110.919 88.9107 109.687 89.4185C108.456 89.9264 107.881 90.7858 107.881 91.9578V107.74H119.457V91.9578C119.457 90.7858 118.841 89.9264 117.651 89.4185Z" fill="url(#paint32_linear_2628_1666)"/>
</g>
<g clipPath="url(#clip1_2628_1666)">
<path d="M301.398 206.876C332.178 206.876 357.131 183.13 357.131 153.838C357.131 124.545 332.178 100.799 301.398 100.799C270.618 100.799 245.666 124.545 245.666 153.838C245.666 183.13 270.618 206.876 301.398 206.876Z" fill="#87DCFF"/>
<path d="M307.887 101.169L305.586 107.991C305.029 109.642 303.634 110.914 301.877 111.372L296.105 112.878C295.64 113 295.161 113.061 294.679 113.061H286.042C285.141 113.061 284.379 113.696 284.26 114.546L283.27 121.616L277.753 121.891C276.825 121.937 276.088 122.648 276.051 123.531L275.86 128.094C275.816 129.121 276.729 129.952 277.805 129.867L281.481 129.576C282.425 129.501 283.288 129.035 283.841 128.302L287.24 123.79L294.51 123.543C296.064 123.49 297.163 124.979 296.599 126.359C295.332 129.455 295.33 129.72 295.33 129.992C295.33 130.938 296.134 131.703 297.128 131.703C298.016 131.703 298.755 131.088 298.899 130.283C299.022 129.888 299.571 128.521 300.29 126.786C300.59 126.061 301.624 125.955 302.076 126.605L302.54 127.274C303.4 128.512 305 129.082 306.502 128.685L309.712 127.837C310.607 127.601 311.329 126.973 311.657 126.146L312.272 124.591C312.707 123.493 313.703 122.684 314.91 122.447L316.985 122.039C318.397 121.762 319.894 122.574 320.139 123.926C320.39 125.307 319.371 126.562 317.954 126.716L312.951 126.844C311.934 126.87 311.117 127.65 311.093 128.619L311.081 129.075C311.072 129.441 311.284 129.779 311.627 129.946L314.504 131.343C315.599 131.874 315.956 133.199 315.264 134.167C314.884 134.699 314.252 135.018 313.576 135.018H298.403C298.006 135.018 297.612 134.947 297.243 134.808L284.511 130.035C283.569 129.682 282.498 129.873 281.754 130.527L269.696 141.133C268.735 141.978 268.332 143.254 268.645 144.463L271.097 153.941C271.475 155.404 272.815 156.46 274.395 156.541L287.98 157.236C290.652 157.372 292.815 159.354 293.061 161.89L294.091 172.537C294.168 173.333 294.389 174.101 294.752 174.823C295.897 177.095 298.566 182.261 300.049 184.046C301.959 186.346 306.666 186.437 308.252 185.062L319.297 176.461C320.22 175.661 320.823 174.582 321.003 173.406L322.297 164.959L331.068 155.76C331.922 154.864 331.538 153.49 330.451 153.046L330.294 153.146C329.629 153.571 328.861 153.828 328.068 153.895C327.927 153.906 327.787 153.913 327.646 153.913C326.021 153.913 324.513 153.128 323.637 151.801L316.94 141.683C316.412 140.882 316.665 139.826 317.504 139.322C318.35 138.822 319.455 139.061 319.985 139.858L326.681 149.978C326.911 150.329 327.318 150.52 327.754 150.486C327.945 150.47 328.133 150.406 328.294 150.304L337.345 145.584C338.289 145.092 338.539 143.91 337.868 143.109C337.496 142.664 336.908 142.433 336.314 142.498L334.413 142.706C333.902 142.761 333.391 142.607 333.008 142.281L327.315 137.434C326.576 136.804 326.512 135.723 327.174 135.018C327.834 134.313 328.97 134.255 329.713 134.885L334.804 139.219L337.898 138.88C338.539 138.804 339.174 139.072 339.555 139.57L340.15 140.345L343.166 140.001C344.631 139.833 346.055 140.535 346.757 141.77L352.846 152.484C353.287 153.262 354.028 153.846 354.913 154.115L357.103 154.848C357.109 154.511 357.13 154.177 357.13 153.838C357.13 126.636 335.607 104.23 307.887 101.169ZM331.168 130.447C330.861 130.645 330.51 130.741 330.164 130.741C329.587 130.741 329.019 130.477 328.674 129.987L324.929 124.712C324.372 123.93 324.588 122.866 325.411 122.338C326.231 121.806 327.353 122.015 327.906 122.797L331.651 128.072C332.208 128.854 331.992 129.918 331.168 130.447Z" fill="#BEE86E"/>
<path d="M319.676 189.482C288.896 189.482 263.944 165.736 263.944 136.444C263.944 126.254 266.969 116.74 272.202 108.659C256.283 117.997 245.666 134.735 245.666 153.838C245.666 183.13 270.618 206.877 301.398 206.877C321.472 206.877 339.06 196.773 348.872 181.623C340.38 186.603 330.383 189.482 319.676 189.482Z" fill="#00C3FF"/>
<path d="M325.667 181.854C325.26 181.854 324.849 181.722 324.512 181.453C323.752 180.845 323.654 179.766 324.293 179.042L329.012 173.696C329.649 172.974 330.785 172.879 331.545 173.487C332.306 174.095 332.404 175.174 331.765 175.898L327.046 181.244C326.691 181.647 326.18 181.854 325.667 181.854Z" fill="#BEE86E"/>
<path d="M286.066 102.848L284.467 107.384C284.151 108.28 284.658 109.25 285.6 109.551C285.789 109.611 285.982 109.639 286.172 109.639C286.923 109.639 287.624 109.188 287.877 108.473L290.205 101.87C288.804 102.142 287.428 102.478 286.066 102.848Z" fill="#BEE86E"/>
<path d="M255.001 183.219L256.556 169.77C256.68 168.714 256.283 167.664 255.479 166.926L245.885 158.388C246.701 167.521 249.94 175.995 255.001 183.219Z" fill="#AFD755"/>
<path d="M301.398 100.799C299.382 100.799 297.393 100.907 295.432 101.105L295.245 105.12C294.774 106.465 295.536 107.919 296.949 108.366C297.232 108.456 297.52 108.498 297.803 108.498C298.931 108.498 299.985 107.818 300.361 106.744L302.434 100.824C302.088 100.818 301.746 100.799 301.398 100.799Z" fill="#BEE86E"/>
<g clipPath="url(#clip2_2628_1666)">
<path d="M279.622 174.532C263.18 174.82 254.338 158.772 258.174 144.583C261.828 131.072 279.076 123.583 291.365 130.714C306.983 139.777 294.377 150.824 288.026 143.101C285.968 138.32 276.15 138.178 272.103 142.828C268.137 147.385 268.197 156.613 272.456 160.855C275.33 163.717 283.174 164.017 286.055 161.738C286.946 161.041 287.442 160.06 287.572 158.738C287.876 155.648 290.754 153.379 294 153.667C303.178 155.126 298.673 166.929 293.547 170.422C290.058 173.149 285.371 174.431 279.622 174.532Z" fill="#0D8BA0"/>
<path d="M291.996 145.595C292.018 145.213 292.029 144.828 292.029 144.441C292.029 137.907 288.915 132.064 284.021 128.185C286.563 128.547 289.053 129.372 291.367 130.714C304.081 138.093 298.09 146.785 291.996 145.595Z" fill="#02718C"/>
<path d="M293.549 170.422C290.058 173.15 285.372 174.431 279.622 174.532C270.777 174.688 264.131 170.114 260.475 163.646C263.311 164.895 266.471 165.593 269.803 165.593C273.472 165.593 276.933 164.747 279.983 163.248C282.412 163.277 284.746 162.774 286.056 161.738C286.948 161.041 287.444 160.06 287.574 158.738C287.877 155.649 290.755 153.379 294.001 153.668C303.178 155.126 298.675 166.929 293.549 170.422Z" fill="#02718C"/>
<path d="M293.549 170.422C290.058 173.15 285.372 174.431 279.622 174.532C277.608 174.568 275.706 174.358 273.93 173.935C274.128 173.94 274.326 173.943 274.525 173.943C286.065 173.943 295.42 165.04 295.42 154.058V154.009C302.67 156.425 298.387 167.126 293.549 170.422Z" fill="#015382"/>
<path d="M258.174 144.583C257.122 148.472 257.024 152.501 257.773 156.295C258.117 158.039 260.12 158.987 261.792 158.202C261.819 158.19 261.845 158.177 261.871 158.165C263.015 157.632 263.629 156.436 263.397 155.244C262.809 152.222 262.897 149.014 263.727 145.943C264.678 142.429 266.987 139.225 270.229 136.921C272.655 135.197 275.443 134.065 278.283 133.627C279.487 133.442 280.421 132.523 280.599 131.374C280.604 131.345 280.608 131.316 280.613 131.287C280.891 129.497 279.266 127.949 277.389 128.238C268.639 129.585 260.545 135.816 258.174 144.583Z" fill="#12ADB5"/>
<path d="M268.029 135.317C266.974 134.027 264.957 133.916 263.77 135.098C261.152 137.703 259.164 140.922 258.174 144.583C257.727 146.237 257.452 147.916 257.342 149.591C257.239 151.142 258.527 152.455 260.159 152.455H260.247C261.746 152.455 262.97 151.34 263.066 149.917C263.155 148.584 263.373 147.251 263.727 145.943C264.43 143.345 265.876 140.916 267.892 138.896C268.856 137.929 268.946 136.44 268.086 135.387C268.067 135.364 268.048 135.341 268.029 135.317Z" fill="#3CD3D3"/>
<path d="M278.283 136.356C279.867 136.356 281.151 135.134 281.151 133.627C281.151 132.12 279.867 130.899 278.283 130.899C276.7 130.899 275.416 132.12 275.416 133.627C275.416 135.134 276.7 136.356 278.283 136.356Z" fill="#3CD3D3"/>
<path d="M269.801 168.321C271.384 168.321 272.668 167.1 272.668 165.593C272.668 164.086 271.384 162.864 269.801 162.864C268.217 162.864 266.934 164.086 266.934 165.593C266.934 167.1 268.217 168.321 269.801 168.321Z" fill="#12ADB5"/>
</g>
<g clipPath="url(#clip3_2628_1666)">
<path d="M337.954 162.099C349.869 143.513 330.069 121.868 310.677 136.862C293.668 150.015 307.768 180.816 329.925 169.496C332.071 170.462 334.422 171.38 336.845 171.561C342.695 171.619 343.735 163.302 337.954 162.099ZM315.411 159.556C311.76 154.366 313.345 144.712 320.343 142.523C330.047 139.487 333.509 148.37 330.412 155.232C330.05 156.036 328.926 156.179 328.326 155.517C324.266 151.038 317.453 155.072 319.583 160.196C320.013 161.23 318.864 162.221 317.841 161.684C316.7 161.085 315.817 160.199 315.411 159.556Z" fill="#0D8BA0"/>
<path d="M336.847 171.561C334.423 171.379 332.072 170.462 329.926 169.497C318.907 175.126 309.881 170.338 305.684 162.484C308.665 164.123 312.125 165.06 315.814 165.06C327.021 165.06 336.107 156.414 336.107 145.748C336.107 141.188 334.445 136.996 331.667 133.693C340.697 138.304 345.219 150.771 337.955 162.1C343.736 163.302 342.697 171.619 336.847 171.561Z" fill="#02718C"/>
<path d="M336.846 171.561C334.422 171.379 332.072 170.461 329.925 169.496C319.236 174.957 310.422 170.614 306.072 163.18C309.967 167.043 315.447 169.449 321.516 169.449C328.132 169.449 334.046 166.591 337.971 162.103C343.734 163.317 342.69 171.619 336.846 171.561Z" fill="#015382"/>
<path d="M305.684 153.344C306.97 153.344 308.037 152.395 308.122 151.174C308.18 150.351 308.3 149.539 308.483 148.748C309.244 145.455 311.08 142.607 313.792 140.509C314.05 140.31 314.31 140.117 314.57 139.932C315.532 139.247 315.821 137.995 315.257 136.986C315.249 136.972 315.241 136.958 315.234 136.944C314.532 135.684 312.813 135.313 311.614 136.168C311.302 136.39 310.99 136.621 310.678 136.862C305.878 140.574 303.556 145.69 303.193 150.869C303.099 152.21 304.222 153.344 305.633 153.344L305.684 153.344Z" fill="#12ADB5"/>
<path d="M309.522 145.763C310.039 144.678 310.691 143.665 311.467 142.738C312.183 141.884 312.181 140.67 311.457 139.822C311.444 139.807 311.431 139.792 311.419 139.777C310.442 138.633 308.596 138.628 307.627 139.778C306.559 141.046 305.694 142.406 305.02 143.826C304.494 144.932 304.944 146.234 306.057 146.826C306.071 146.833 306.086 146.841 306.101 146.849C307.354 147.514 308.928 147.006 309.522 145.763Z" fill="#3CD3D3"/>
<path d="M324.015 137.211C323.214 137.211 322.391 137.277 321.553 137.408C320.069 137.641 319.15 139.074 319.619 140.433L319.628 140.459C320.005 141.55 321.158 142.233 322.348 142.046C325.302 141.581 327.55 142.346 329.08 143.813C329.881 144.581 331.137 144.71 332.102 144.138C332.116 144.129 332.13 144.121 332.144 144.113C333.475 143.323 333.69 141.559 332.585 140.5C330.374 138.381 327.387 137.211 324.015 137.211Z" fill="#12ADB5"/>
<path d="M328.866 140.605C330.229 140.605 331.335 139.553 331.335 138.256C331.335 136.958 330.229 135.906 328.866 135.906C327.502 135.906 326.396 136.958 326.396 138.256C326.396 139.553 327.502 140.605 328.866 140.605Z" fill="#3CD3D3"/>
<path d="M321.967 161.386C323.331 161.386 324.436 160.334 324.436 159.036C324.436 157.739 323.331 156.687 321.967 156.687C320.603 156.687 319.498 157.739 319.498 159.036C319.498 160.334 320.603 161.386 321.967 161.386Z" fill="#12ADB5"/>
</g>
</g>
<path d="M23.5869 175.137C20.0826 197.722 33.3442 219.035 54.4281 227.614L55.1009 223.41C55.7627 219.032 61.4676 217.341 64.6346 220.608L76.1357 232.378C78.5352 234.848 77.9375 238.785 74.8652 240.519L60.2801 248.668C56.2835 250.909 51.3196 247.727 51.9814 243.349L52.7619 238.228C25.7055 228.555 8.37634 201.944 12.7348 173.657C13.1797 170.796 15.9456 168.87 18.9311 169.26C21.9727 169.663 24.0318 172.276 23.5869 175.137Z" fill="url(#paint33_linear_2628_1666)"/>
<path d="M60.2789 248.668C56.2822 250.909 51.3183 247.727 51.9801 243.348L52.7606 238.228C52.7606 238.228 61.4291 240.953 70.8317 242.779L60.2789 248.668Z" fill="url(#paint34_linear_2628_1666)"/>
<path d="M54.4249 227.614L55.0977 223.41C55.7595 219.032 61.4644 217.341 64.6314 220.608L75.7795 232.03C62.7966 230.007 54.4249 227.614 54.4249 227.614Z" fill="url(#paint35_linear_2628_1666)"/>
<path d="M201.625 252.453C223.604 261.603 248.696 255.023 262.932 237.916L258.846 236.194C254.581 234.436 254.365 228.754 258.509 226.704L273.463 219.234C276.598 217.679 280.433 219.262 281.383 222.539L285.815 238.072C287.037 242.33 282.507 246.053 278.242 244.295L273.256 242.234C256.342 264.538 224.809 273.461 197.274 262.029C194.49 260.869 193.264 257.824 194.443 255.185C195.651 252.498 198.841 251.293 201.625 252.453Z" fill="url(#paint36_linear_2628_1666)"/>
<path d="M285.812 238.072C287.035 242.33 282.505 246.053 278.24 244.295L273.253 242.234C273.253 242.234 278.293 234.989 282.614 226.835L285.812 238.072Z" fill="url(#paint37_linear_2628_1666)"/>
<path d="M262.934 237.916L258.848 236.194C254.583 234.437 254.366 228.754 258.511 226.704L273.02 219.467C267.558 230.857 262.934 237.916 262.934 237.916Z" fill="url(#paint38_linear_2628_1666)"/>
<defs>
<linearGradient id="paint0_linear_2628_1666" x1="84.5049" y1="54.0334" x2="106.84" y2="110.601" gradientUnits="userSpaceOnUse">
<stop stop-color="#FE99A0"/>
<stop offset="0.2132" stop-color="#FE949D"/>
<stop offset="0.4342" stop-color="#FE8894"/>
<stop offset="0.6587" stop-color="#FE7385"/>
<stop offset="0.8843" stop-color="#FE5671"/>
<stop offset="1" stop-color="#FF4565"/>
</linearGradient>
<linearGradient id="paint1_linear_2628_1666" x1="96.5301" y1="79.7151" x2="112.562" y2="99.0381" gradientUnits="userSpaceOnUse">
<stop stop-color="#FF4565" stop-opacity="0"/>
<stop offset="0.1276" stop-color="#FE4463" stop-opacity="0.018"/>
<stop offset="0.2599" stop-color="#FD4260" stop-opacity="0.073"/>
<stop offset="0.3944" stop-color="#FA3E5B" stop-opacity="0.164"/>
<stop offset="0.5304" stop-color="#F73954" stop-opacity="0.292"/>
<stop offset="0.6676" stop-color="#F2334B" stop-opacity="0.456"/>
<stop offset="0.8059" stop-color="#ED2C40" stop-opacity="0.657"/>
<stop offset="0.9424" stop-color="#E62333" stop-opacity="0.891"/>
<stop offset="1" stop-color="#E41F2D"/>
</linearGradient>
<linearGradient id="paint2_linear_2628_1666" x1="206.03" y1="179.688" x2="192.285" y2="198.74" gradientUnits="userSpaceOnUse">
<stop stop-color="#FE99A0"/>
<stop offset="0.2132" stop-color="#FE949D"/>
<stop offset="0.4342" stop-color="#FE8894"/>
<stop offset="0.6587" stop-color="#FE7385"/>
<stop offset="0.8843" stop-color="#FE5671"/>
<stop offset="1" stop-color="#FF4565"/>
</linearGradient>
<linearGradient id="paint3_linear_2628_1666" x1="214.74" y1="191.759" x2="194.535" y2="181.068" gradientUnits="userSpaceOnUse">
<stop stop-color="#FF4565" stop-opacity="0"/>
<stop offset="0.1276" stop-color="#FE4463" stop-opacity="0.018"/>
<stop offset="0.2599" stop-color="#FD4260" stop-opacity="0.073"/>
<stop offset="0.3944" stop-color="#FA3E5B" stop-opacity="0.164"/>
<stop offset="0.5304" stop-color="#F73954" stop-opacity="0.292"/>
<stop offset="0.6676" stop-color="#F2334B" stop-opacity="0.456"/>
<stop offset="0.8059" stop-color="#ED2C40" stop-opacity="0.657"/>
<stop offset="0.9424" stop-color="#E62333" stop-opacity="0.891"/>
<stop offset="1" stop-color="#E41F2D"/>
</linearGradient>
<linearGradient id="paint4_linear_2628_1666" x1="115.549" y1="83.2052" x2="148.895" y2="189.672" gradientUnits="userSpaceOnUse">
<stop stop-color="#FE99A0"/>
<stop offset="0.2132" stop-color="#FE949D"/>
<stop offset="0.4342" stop-color="#FE8894"/>
<stop offset="0.6587" stop-color="#FE7385"/>
<stop offset="0.8843" stop-color="#FE5671"/>
<stop offset="1" stop-color="#FF4565"/>
</linearGradient>
<linearGradient id="paint5_linear_2628_1666" x1="137.86" y1="155.834" x2="137.86" y2="184.319" gradientUnits="userSpaceOnUse">
<stop stop-color="#FF4565" stop-opacity="0"/>
<stop offset="0.1276" stop-color="#FE4463" stop-opacity="0.018"/>
<stop offset="0.2599" stop-color="#FD4260" stop-opacity="0.073"/>
<stop offset="0.3944" stop-color="#FA3E5B" stop-opacity="0.164"/>
<stop offset="0.5304" stop-color="#F73954" stop-opacity="0.292"/>
<stop offset="0.6676" stop-color="#F2334B" stop-opacity="0.456"/>
<stop offset="0.8059" stop-color="#ED2C40" stop-opacity="0.657"/>
<stop offset="0.9424" stop-color="#E62333" stop-opacity="0.891"/>
<stop offset="1" stop-color="#E41F2D"/>
</linearGradient>
<linearGradient id="paint6_linear_2628_1666" x1="235.549" y1="169.835" x2="220.968" y2="159.273" gradientUnits="userSpaceOnUse">
<stop stop-color="#FF4565" stop-opacity="0"/>
<stop offset="0.1276" stop-color="#FE4463" stop-opacity="0.018"/>
<stop offset="0.2599" stop-color="#FD4260" stop-opacity="0.073"/>
<stop offset="0.3944" stop-color="#FA3E5B" stop-opacity="0.164"/>
<stop offset="0.5304" stop-color="#F73954" stop-opacity="0.292"/>
<stop offset="0.6676" stop-color="#F2334B" stop-opacity="0.456"/>
<stop offset="0.8059" stop-color="#ED2C40" stop-opacity="0.657"/>
<stop offset="0.9424" stop-color="#E62333" stop-opacity="0.891"/>
<stop offset="1" stop-color="#E41F2D"/>
</linearGradient>
<linearGradient id="paint7_linear_2628_1666" x1="61.093" y1="164.118" x2="45.8081" y2="157.603" gradientUnits="userSpaceOnUse">
<stop stop-color="#FF4565" stop-opacity="0"/>
<stop offset="0.1276" stop-color="#FE4463" stop-opacity="0.018"/>
<stop offset="0.2599" stop-color="#FD4260" stop-opacity="0.073"/>
<stop offset="0.3944" stop-color="#FA3E5B" stop-opacity="0.164"/>
<stop offset="0.5304" stop-color="#F73954" stop-opacity="0.292"/>
<stop offset="0.6676" stop-color="#F2334B" stop-opacity="0.456"/>
<stop offset="0.8059" stop-color="#ED2C40" stop-opacity="0.657"/>
<stop offset="0.9424" stop-color="#E62333" stop-opacity="0.891"/>
<stop offset="1" stop-color="#E41F2D"/>
</linearGradient>
<linearGradient id="paint8_linear_2628_1666" x1="106.853" y1="86.86" x2="83.6605" y2="74.3542" gradientUnits="userSpaceOnUse">
<stop stop-color="#FF4565" stop-opacity="0"/>
<stop offset="0.1276" stop-color="#FE4463" stop-opacity="0.018"/>
<stop offset="0.2599" stop-color="#FD4260" stop-opacity="0.073"/>
<stop offset="0.3944" stop-color="#FA3E5B" stop-opacity="0.164"/>
<stop offset="0.5304" stop-color="#F73954" stop-opacity="0.292"/>
<stop offset="0.6676" stop-color="#F2334B" stop-opacity="0.456"/>
<stop offset="0.8059" stop-color="#ED2C40" stop-opacity="0.657"/>
<stop offset="0.9424" stop-color="#E62333" stop-opacity="0.891"/>
<stop offset="1" stop-color="#E41F2D"/>
</linearGradient>
<linearGradient id="paint9_linear_2628_1666" x1="70.5027" y1="113.119" x2="39.7048" y2="113.119" gradientUnits="userSpaceOnUse">
<stop stop-color="#FF4565" stop-opacity="0"/>
<stop offset="0.1276" stop-color="#FE4463" stop-opacity="0.018"/>
<stop offset="0.2599" stop-color="#FD4260" stop-opacity="0.073"/>
<stop offset="0.3944" stop-color="#FA3E5B" stop-opacity="0.164"/>
<stop offset="0.5304" stop-color="#F73954" stop-opacity="0.292"/>
<stop offset="0.6676" stop-color="#F2334B" stop-opacity="0.456"/>
<stop offset="0.8059" stop-color="#ED2C40" stop-opacity="0.657"/>
<stop offset="0.9424" stop-color="#E62333" stop-opacity="0.891"/>
<stop offset="1" stop-color="#E41F2D"/>
</linearGradient>
<linearGradient id="paint10_linear_2628_1666" x1="163.184" y1="90.5165" x2="196.171" y2="73.1855" gradientUnits="userSpaceOnUse">
<stop stop-color="#FF4565" stop-opacity="0"/>
<stop offset="0.1276" stop-color="#FE4463" stop-opacity="0.018"/>
<stop offset="0.2599" stop-color="#FD4260" stop-opacity="0.073"/>
<stop offset="0.3944" stop-color="#FA3E5B" stop-opacity="0.164"/>
<stop offset="0.5304" stop-color="#F73954" stop-opacity="0.292"/>
<stop offset="0.6676" stop-color="#F2334B" stop-opacity="0.456"/>
<stop offset="0.8059" stop-color="#ED2C40" stop-opacity="0.657"/>
<stop offset="0.9424" stop-color="#E62333" stop-opacity="0.891"/>
<stop offset="1" stop-color="#E41F2D"/>
</linearGradient>
<linearGradient id="paint11_linear_2628_1666" x1="204.675" y1="113.119" x2="227.608" y2="113.119" gradientUnits="userSpaceOnUse">
<stop stop-color="#FF4565" stop-opacity="0"/>
<stop offset="0.1276" stop-color="#FE4463" stop-opacity="0.018"/>
<stop offset="0.2599" stop-color="#FD4260" stop-opacity="0.073"/>
<stop offset="0.3944" stop-color="#FA3E5B" stop-opacity="0.164"/>
<stop offset="0.5304" stop-color="#F73954" stop-opacity="0.292"/>
<stop offset="0.6676" stop-color="#F2334B" stop-opacity="0.456"/>
<stop offset="0.8059" stop-color="#ED2C40" stop-opacity="0.657"/>
<stop offset="0.9424" stop-color="#E62333" stop-opacity="0.891"/>
<stop offset="1" stop-color="#E41F2D"/>
</linearGradient>
<linearGradient id="paint12_linear_2628_1666" x1="194.41" y1="100.347" x2="194.41" y2="81.0237" gradientUnits="userSpaceOnUse">
<stop stop-color="#FF4565" stop-opacity="0"/>
<stop offset="0.1276" stop-color="#FE4463" stop-opacity="0.018"/>
<stop offset="0.2599" stop-color="#FD4260" stop-opacity="0.073"/>
<stop offset="0.3944" stop-color="#FA3E5B" stop-opacity="0.164"/>
<stop offset="0.5304" stop-color="#F73954" stop-opacity="0.292"/>
<stop offset="0.6676" stop-color="#F2334B" stop-opacity="0.456"/>
<stop offset="0.8059" stop-color="#ED2C40" stop-opacity="0.657"/>
<stop offset="0.9424" stop-color="#E62333" stop-opacity="0.891"/>
<stop offset="1" stop-color="#E41F2D"/>
</linearGradient>
<linearGradient id="paint13_linear_2628_1666" x1="127.507" y1="81.7365" x2="143.185" y2="64.6403" gradientUnits="userSpaceOnUse">
<stop stop-color="#FF4565" stop-opacity="0"/>
<stop offset="0.1276" stop-color="#FE4463" stop-opacity="0.018"/>
<stop offset="0.2599" stop-color="#FD4260" stop-opacity="0.073"/>
<stop offset="0.3944" stop-color="#FA3E5B" stop-opacity="0.164"/>
<stop offset="0.5304" stop-color="#F73954" stop-opacity="0.292"/>
<stop offset="0.6676" stop-color="#F2334B" stop-opacity="0.456"/>
<stop offset="0.8059" stop-color="#ED2C40" stop-opacity="0.657"/>
<stop offset="0.9424" stop-color="#E62333" stop-opacity="0.891"/>
<stop offset="1" stop-color="#E41F2D"/>
</linearGradient>
<linearGradient id="paint14_linear_2628_1666" x1="156.187" y1="128.016" x2="78.6045" y2="81.0609" gradientUnits="userSpaceOnUse">
<stop stop-color="#FF4565" stop-opacity="0"/>
<stop offset="0.1276" stop-color="#FE4463" stop-opacity="0.018"/>
<stop offset="0.2599" stop-color="#FD4260" stop-opacity="0.073"/>
<stop offset="0.3944" stop-color="#FA3E5B" stop-opacity="0.164"/>
<stop offset="0.5304" stop-color="#F73954" stop-opacity="0.292"/>
<stop offset="0.6676" stop-color="#F2334B" stop-opacity="0.456"/>
<stop offset="0.8059" stop-color="#ED2C40" stop-opacity="0.657"/>
<stop offset="0.9424" stop-color="#E62333" stop-opacity="0.891"/>
<stop offset="1" stop-color="#E41F2D"/>
</linearGradient>
<linearGradient id="paint15_linear_2628_1666" x1="91.5038" y1="75.961" x2="151.231" y2="138.332" gradientUnits="userSpaceOnUse">
<stop stop-color="#FE99A0" stop-opacity="0"/>
<stop offset="0.1207" stop-color="#FE99A0" stop-opacity="0.016"/>
<stop offset="0.2459" stop-color="#FE99A0" stop-opacity="0.065"/>
<stop offset="0.3731" stop-color="#FE99A0" stop-opacity="0.147"/>
<stop offset="0.5018" stop-color="#FE99A0" stop-opacity="0.262"/>
<stop offset="0.6317" stop-color="#FE99A0" stop-opacity="0.41"/>
<stop offset="0.7625" stop-color="#FE99A0" stop-opacity="0.59"/>
<stop offset="0.8916" stop-color="#FE99A0" stop-opacity="0.8"/>
<stop offset="1" stop-color="#FE99A0"/>
</linearGradient>
<linearGradient id="paint16_linear_2628_1666" x1="101.155" y1="156.826" x2="168.069" y2="227.139" gradientUnits="userSpaceOnUse">
<stop stop-color="#8AC9FE"/>
<stop offset="0.1658" stop-color="#85C6FD"/>
<stop offset="0.3377" stop-color="#79C0FD"/>
<stop offset="0.5124" stop-color="#64B5FD"/>
<stop offset="0.6889" stop-color="#47A6FD"/>
<stop offset="0.8653" stop-color="#2293FC"/>
<stop offset="1" stop-color="#0182FC"/>
</linearGradient>
<linearGradient id="paint17_linear_2628_1666" x1="154.37" y1="220.42" x2="164.571" y2="237.264" gradientUnits="userSpaceOnUse">
<stop stop-color="#0172FB" stop-opacity="0"/>
<stop offset="0.1214" stop-color="#0172FB" stop-opacity="0.017"/>
<stop offset="0.2474" stop-color="#0172FB" stop-opacity="0.066"/>
<stop offset="0.3754" stop-color="#0172FB" stop-opacity="0.149"/>
<stop offset="0.5049" stop-color="#0172FB" stop-opacity="0.265"/>
<stop offset="0.6355" stop-color="#0172FB" stop-opacity="0.414"/>
<stop offset="0.7672" stop-color="#0172FB" stop-opacity="0.598"/>
<stop offset="0.897" stop-color="#0172FB" stop-opacity="0.81"/>
<stop offset="1" stop-color="#0172FB"/>
</linearGradient>
<linearGradient id="paint18_linear_2628_1666" x1="113.242" y1="225.746" x2="103.041" y2="242.589" gradientUnits="userSpaceOnUse">
<stop stop-color="#0172FB" stop-opacity="0"/>
<stop offset="0.1214" stop-color="#0172FB" stop-opacity="0.017"/>
<stop offset="0.2474" stop-color="#0172FB" stop-opacity="0.066"/>
<stop offset="0.3754" stop-color="#0172FB" stop-opacity="0.149"/>
<stop offset="0.5049" stop-color="#0172FB" stop-opacity="0.265"/>
<stop offset="0.6355" stop-color="#0172FB" stop-opacity="0.414"/>
<stop offset="0.7672" stop-color="#0172FB" stop-opacity="0.598"/>
<stop offset="0.897" stop-color="#0172FB" stop-opacity="0.81"/>
<stop offset="1" stop-color="#0172FB"/>
</linearGradient>
<linearGradient id="paint19_linear_2628_1666" x1="121.503" y1="173.278" x2="135.022" y2="159.073" gradientUnits="userSpaceOnUse">
<stop stop-color="#0172FB" stop-opacity="0"/>
<stop offset="0.1214" stop-color="#0172FB" stop-opacity="0.017"/>
<stop offset="0.2474" stop-color="#0172FB" stop-opacity="0.066"/>
<stop offset="0.3754" stop-color="#0172FB" stop-opacity="0.149"/>
<stop offset="0.5049" stop-color="#0172FB" stop-opacity="0.265"/>
<stop offset="0.6355" stop-color="#0172FB" stop-opacity="0.414"/>
<stop offset="0.7672" stop-color="#0172FB" stop-opacity="0.598"/>
<stop offset="0.897" stop-color="#0172FB" stop-opacity="0.81"/>
<stop offset="1" stop-color="#0172FB"/>
</linearGradient>
<linearGradient id="paint20_linear_2628_1666" x1="154.95" y1="164.906" x2="149.859" y2="150.077" gradientUnits="userSpaceOnUse">
<stop stop-color="white" stop-opacity="0"/>
<stop offset="0.1205" stop-color="white" stop-opacity="0.016"/>
<stop offset="0.2454" stop-color="white" stop-opacity="0.065"/>
<stop offset="0.3724" stop-color="white" stop-opacity="0.147"/>
<stop offset="0.5008" stop-color="white" stop-opacity="0.261"/>
<stop offset="0.6304" stop-color="white" stop-opacity="0.408"/>
<stop offset="0.761" stop-color="white" stop-opacity="0.588"/>
<stop offset="0.8898" stop-color="white" stop-opacity="0.797"/>
<stop offset="1" stop-color="white"/>
</linearGradient>
<linearGradient id="paint21_linear_2628_1666" x1="162.283" y1="228.902" x2="169.694" y2="239.862" gradientUnits="userSpaceOnUse">
<stop stop-color="white" stop-opacity="0"/>
<stop offset="0.1205" stop-color="white" stop-opacity="0.016"/>
<stop offset="0.2454" stop-color="white" stop-opacity="0.065"/>
<stop offset="0.3724" stop-color="white" stop-opacity="0.147"/>
<stop offset="0.5008" stop-color="white" stop-opacity="0.261"/>
<stop offset="0.6304" stop-color="white" stop-opacity="0.408"/>
<stop offset="0.761" stop-color="white" stop-opacity="0.588"/>
<stop offset="0.8898" stop-color="white" stop-opacity="0.797"/>
<stop offset="1" stop-color="white"/>
</linearGradient>
<linearGradient id="paint22_linear_2628_1666" x1="106.579" y1="95.2585" x2="124.413" y2="148.439" gradientUnits="userSpaceOnUse">
<stop stop-color="#EAF6FF"/>
<stop offset="0.2651" stop-color="#E5F3FE"/>
<stop offset="0.5398" stop-color="#D9EDFE"/>
<stop offset="0.8179" stop-color="#C4E3FE"/>
<stop offset="1" stop-color="#B3DAFE"/>
</linearGradient>
<linearGradient id="paint23_linear_2628_1666" x1="134.438" y1="85.9159" x2="152.272" y2="139.097" gradientUnits="userSpaceOnUse">
<stop stop-color="#EAF6FF"/>
<stop offset="0.2651" stop-color="#E5F3FE"/>
<stop offset="0.5398" stop-color="#D9EDFE"/>
<stop offset="0.8179" stop-color="#C4E3FE"/>
<stop offset="1" stop-color="#B3DAFE"/>
</linearGradient>
<linearGradient id="paint24_linear_2628_1666" x1="113.581" y1="114.451" x2="107.434" y2="114.451" gradientUnits="userSpaceOnUse">
<stop stop-color="#8AC9FE" stop-opacity="0"/>
<stop offset="0.1291" stop-color="#89C8FD" stop-opacity="0.019"/>
<stop offset="0.2629" stop-color="#88C6FB" stop-opacity="0.075"/>
<stop offset="0.3989" stop-color="#87C4F8" stop-opacity="0.168"/>
<stop offset="0.5365" stop-color="#85C0F4" stop-opacity="0.298"/>
<stop offset="0.6753" stop-color="#83BBEF" stop-opacity="0.466"/>
<stop offset="0.8151" stop-color="#7FB5E9" stop-opacity="0.672"/>
<stop offset="0.9532" stop-color="#7CAEE1" stop-opacity="0.911"/>
<stop offset="1" stop-color="#7BACDF"/>
</linearGradient>
<linearGradient id="paint25_linear_2628_1666" x1="134.065" y1="118.299" x2="126.163" y2="118.299" gradientUnits="userSpaceOnUse">
<stop stop-color="#8AC9FE" stop-opacity="0"/>
<stop offset="0.1291" stop-color="#89C8FD" stop-opacity="0.019"/>
<stop offset="0.2629" stop-color="#88C6FB" stop-opacity="0.075"/>
<stop offset="0.3989" stop-color="#87C4F8" stop-opacity="0.168"/>
<stop offset="0.5365" stop-color="#85C0F4" stop-opacity="0.298"/>
<stop offset="0.6753" stop-color="#83BBEF" stop-opacity="0.466"/>
<stop offset="0.8151" stop-color="#7FB5E9" stop-opacity="0.672"/>
<stop offset="0.9532" stop-color="#7CAEE1" stop-opacity="0.911"/>
<stop offset="1" stop-color="#7BACDF"/>
</linearGradient>
<linearGradient id="paint26_linear_2628_1666" x1="154.338" y1="121.12" x2="142.371" y2="116.861" gradientUnits="userSpaceOnUse">
<stop stop-color="#8AC9FE" stop-opacity="0"/>
<stop offset="0.1291" stop-color="#89C8FD" stop-opacity="0.019"/>
<stop offset="0.2629" stop-color="#88C6FB" stop-opacity="0.075"/>
<stop offset="0.3989" stop-color="#87C4F8" stop-opacity="0.168"/>
<stop offset="0.5365" stop-color="#85C0F4" stop-opacity="0.298"/>
<stop offset="0.6753" stop-color="#83BBEF" stop-opacity="0.466"/>
<stop offset="0.8151" stop-color="#7FB5E9" stop-opacity="0.672"/>
<stop offset="0.9532" stop-color="#7CAEE1" stop-opacity="0.911"/>
<stop offset="1" stop-color="#7BACDF"/>
</linearGradient>
<linearGradient id="paint27_linear_2628_1666" x1="145.821" y1="144.21" x2="141.281" y2="144.21" gradientUnits="userSpaceOnUse">
<stop stop-color="#8AC9FE" stop-opacity="0"/>
<stop offset="0.1291" stop-color="#89C8FD" stop-opacity="0.019"/>
<stop offset="0.2629" stop-color="#88C6FB" stop-opacity="0.075"/>
<stop offset="0.3989" stop-color="#87C4F8" stop-opacity="0.168"/>
<stop offset="0.5365" stop-color="#85C0F4" stop-opacity="0.298"/>
<stop offset="0.6753" stop-color="#83BBEF" stop-opacity="0.466"/>
<stop offset="0.8151" stop-color="#7FB5E9" stop-opacity="0.672"/>
<stop offset="0.9532" stop-color="#7CAEE1" stop-opacity="0.911"/>
<stop offset="1" stop-color="#7BACDF"/>
</linearGradient>
<linearGradient id="paint28_linear_2628_1666" x1="145.085" y1="95.0885" x2="145.085" y2="88.1208" gradientUnits="userSpaceOnUse">
<stop stop-color="#8AC9FE" stop-opacity="0"/>
<stop offset="0.1291" stop-color="#89C8FD" stop-opacity="0.019"/>
<stop offset="0.2629" stop-color="#88C6FB" stop-opacity="0.075"/>
<stop offset="0.3989" stop-color="#87C4F8" stop-opacity="0.168"/>
<stop offset="0.5365" stop-color="#85C0F4" stop-opacity="0.298"/>
<stop offset="0.6753" stop-color="#83BBEF" stop-opacity="0.466"/>
<stop offset="0.8151" stop-color="#7FB5E9" stop-opacity="0.672"/>
<stop offset="0.9532" stop-color="#7CAEE1" stop-opacity="0.911"/>
<stop offset="1" stop-color="#7BACDF"/>
</linearGradient>
<linearGradient id="paint29_linear_2628_1666" x1="141.229" y1="101.533" x2="133.137" y2="90.1482" gradientUnits="userSpaceOnUse">
<stop stop-color="#8AC9FE" stop-opacity="0"/>
<stop offset="0.1291" stop-color="#89C8FD" stop-opacity="0.019"/>
<stop offset="0.2629" stop-color="#88C6FB" stop-opacity="0.075"/>
<stop offset="0.3989" stop-color="#87C4F8" stop-opacity="0.168"/>
<stop offset="0.5365" stop-color="#85C0F4" stop-opacity="0.298"/>
<stop offset="0.6753" stop-color="#83BBEF" stop-opacity="0.466"/>
<stop offset="0.8151" stop-color="#7FB5E9" stop-opacity="0.672"/>
<stop offset="0.9532" stop-color="#7CAEE1" stop-opacity="0.911"/>
<stop offset="1" stop-color="#7BACDF"/>
</linearGradient>
<linearGradient id="paint30_linear_2628_1666" x1="114.855" y1="187.022" x2="129.035" y2="230.894" gradientUnits="userSpaceOnUse">
<stop stop-color="#EAF6FF"/>
<stop offset="0.2651" stop-color="#E5F3FE"/>
<stop offset="0.5398" stop-color="#D9EDFE"/>
<stop offset="0.8179" stop-color="#C4E3FE"/>
<stop offset="1" stop-color="#B3DAFE"/>
</linearGradient>
<linearGradient id="paint31_linear_2628_1666" x1="143.936" y1="177.622" x2="158.116" y2="221.494" gradientUnits="userSpaceOnUse">
<stop stop-color="#EAF6FF"/>
<stop offset="0.2651" stop-color="#E5F3FE"/>
<stop offset="0.5398" stop-color="#D9EDFE"/>
<stop offset="0.8179" stop-color="#C4E3FE"/>
<stop offset="1" stop-color="#B3DAFE"/>
</linearGradient>
<linearGradient id="paint32_linear_2628_1666" x1="113.667" y1="95.5061" x2="113.667" y2="88.338" gradientUnits="userSpaceOnUse">
<stop stop-color="#8AC9FE" stop-opacity="0"/>
<stop offset="0.1291" stop-color="#89C8FD" stop-opacity="0.019"/>
<stop offset="0.2629" stop-color="#88C6FB" stop-opacity="0.075"/>
<stop offset="0.3989" stop-color="#87C4F8" stop-opacity="0.168"/>
<stop offset="0.5365" stop-color="#85C0F4" stop-opacity="0.298"/>
<stop offset="0.6753" stop-color="#83BBEF" stop-opacity="0.466"/>
<stop offset="0.8151" stop-color="#7FB5E9" stop-opacity="0.672"/>
<stop offset="0.9532" stop-color="#7CAEE1" stop-opacity="0.911"/>
<stop offset="1" stop-color="#7BACDF"/>
</linearGradient>
<linearGradient id="paint33_linear_2628_1666" x1="20.3686" y1="218.883" x2="48.0363" y2="202.098" gradientUnits="userSpaceOnUse">
<stop stop-color="#C2FAE3"/>
<stop offset="0.1386" stop-color="#BDF9E1"/>
<stop offset="0.2824" stop-color="#B1F9DD"/>
<stop offset="0.4285" stop-color="#9CF8D7"/>
<stop offset="0.5763" stop-color="#7FF7CE"/>
<stop offset="0.7253" stop-color="#5AF5C2"/>
<stop offset="0.8732" stop-color="#2CF3B4"/>
<stop offset="1" stop-color="#00F2A6"/>
</linearGradient>
<linearGradient id="paint34_linear_2628_1666" x1="57.7117" y1="244.058" x2="51.7382" y2="243.426" gradientUnits="userSpaceOnUse">
<stop stop-color="#07B27B" stop-opacity="0"/>
<stop offset="0.1449" stop-color="#07B27B" stop-opacity="0.023"/>
<stop offset="0.2951" stop-color="#07B27B" stop-opacity="0.093"/>
<stop offset="0.4478" stop-color="#07B27B" stop-opacity="0.21"/>
<stop offset="0.6022" stop-color="#07B27B" stop-opacity="0.373"/>
<stop offset="0.758" stop-color="#07B27B" stop-opacity="0.584"/>
<stop offset="0.9127" stop-color="#07B27B" stop-opacity="0.837"/>
<stop offset="1" stop-color="#07B27B"/>
</linearGradient>
<linearGradient id="paint35_linear_2628_1666" x1="59.7659" y1="224.641" x2="53.7922" y2="224.008" gradientUnits="userSpaceOnUse">
<stop stop-color="#07B27B" stop-opacity="0"/>
<stop offset="0.1449" stop-color="#07B27B" stop-opacity="0.023"/>
<stop offset="0.2951" stop-color="#07B27B" stop-opacity="0.093"/>
<stop offset="0.4478" stop-color="#07B27B" stop-opacity="0.21"/>
<stop offset="0.6022" stop-color="#07B27B" stop-opacity="0.373"/>
<stop offset="0.758" stop-color="#07B27B" stop-opacity="0.584"/>
<stop offset="0.9127" stop-color="#07B27B" stop-opacity="0.837"/>
<stop offset="1" stop-color="#07B27B"/>
</linearGradient>
<linearGradient id="paint36_linear_2628_1666" x1="233.829" y1="226.126" x2="242.928" y2="262.384" gradientUnits="userSpaceOnUse">
<stop stop-color="#C2FAE3"/>
<stop offset="0.1386" stop-color="#BDF9E1"/>
<stop offset="0.2824" stop-color="#B1F9DD"/>
<stop offset="0.4285" stop-color="#9CF8D7"/>
<stop offset="0.5763" stop-color="#7FF7CE"/>
<stop offset="0.7253" stop-color="#5AF5C2"/>
<stop offset="0.8732" stop-color="#2CF3B4"/>
<stop offset="1" stop-color="#00F2A6"/>
</linearGradient>
<linearGradient id="paint37_linear_2628_1666" x1="279.846" y1="240.847" x2="278.241" y2="244.799" gradientUnits="userSpaceOnUse">
<stop stop-color="#07B27B" stop-opacity="0"/>
<stop offset="0.1449" stop-color="#07B27B" stop-opacity="0.023"/>
<stop offset="0.2951" stop-color="#07B27B" stop-opacity="0.093"/>
<stop offset="0.4478" stop-color="#07B27B" stop-opacity="0.21"/>
<stop offset="0.6022" stop-color="#07B27B" stop-opacity="0.373"/>
<stop offset="0.758" stop-color="#07B27B" stop-opacity="0.584"/>
<stop offset="0.9127" stop-color="#07B27B" stop-opacity="0.837"/>
<stop offset="1" stop-color="#07B27B"/>
</linearGradient>
<linearGradient id="paint38_linear_2628_1666" x1="260.603" y1="233.034" x2="258.998" y2="236.985" gradientUnits="userSpaceOnUse">
<stop stop-color="#07B27B" stop-opacity="0"/>
<stop offset="0.1449" stop-color="#07B27B" stop-opacity="0.023"/>
<stop offset="0.2951" stop-color="#07B27B" stop-opacity="0.093"/>
<stop offset="0.4478" stop-color="#07B27B" stop-opacity="0.21"/>
<stop offset="0.6022" stop-color="#07B27B" stop-opacity="0.373"/>
<stop offset="0.758" stop-color="#07B27B" stop-opacity="0.584"/>
<stop offset="0.9127" stop-color="#07B27B" stop-opacity="0.837"/>
<stop offset="1" stop-color="#07B27B"/>
</linearGradient>
<clipPath id="clip0_2628_1666">
<rect width="210.174" height="200.016" fill="white" transform="translate(30.5 53.8298)"/>
</clipPath>
<clipPath id="clip1_2628_1666">
<rect width="111.464" height="106.077" fill="white" transform="translate(245.666 100.799)"/>
</clipPath>
<clipPath id="clip2_2628_1666">
<rect width="48.9356" height="46.5705" fill="white" transform="translate(253.82 127.965)"/>
</clipPath>
<clipPath id="clip3_2628_1666">
<rect width="42.139" height="40.1024" fill="white" transform="translate(301.398 131.846)"/>
</clipPath>
</defs>
</svg>
